Coordinates
version=1
nRows=12
nColumns=33
inDegrees=yes

Units are S.I. units (second, meters, Newtons, ...)
Angles are in degrees.

endheader
time	ground_thorax_rot_x	ground_thorax_rot_y	ground_thorax_rot_z	ground_thorax_tx	ground_thorax_ty	ground_thorax_tz	clav_prot_r	clav_elev_r	scapula_abduction_r	scapula_elevation_r	scapula_upward_rot_r	scapula_winging_r	shoulder_elv_r	plane_of_elev_r	axial_rot_r	elbow_flexion_r	pro_sup_r	wrist_flex_r	wrist_dev_r	clav_prot_l	clav_elev_l	scapula_abduction_l	scapula_elevation_l	scapula_upward_rot_l	scapula_winging_l	shoulder_elv_l	plane_of_elev_l	axial_rot_l	elbow_flexion_l	pro_sup_l	wrist_flex_l	wrist_dev_l	
5.6700	-0.947255	2.174778	12.925621	-0.116692	1.027178	0.013880	9.023459	-11.005339	17.153028	-4.894091	2.663612	-3.275597	-32.128735	-73.399591	104.679985	-81.156677	-155.421449	28.165944	-11.659115	11.209504	-3.664681	-14.549749	-17.678839	-34.055244	-0.004639	63.454040	-24.242766	4.645840	67.338427	14.217428	16.188107	-14.558937	
5.6800	-1.088725	2.240234	12.956096	-0.116779	1.027017	0.013781	9.232714	-11.159752	17.660812	-5.148234	2.957979	-3.412827	-30.657018	-73.021441	105.786168	-81.294798	-156.131761	26.328669	-10.105847	11.468537	-3.942923	-14.975954	-17.235721	-33.712178	0.248880	63.678921	-23.255033	4.859279	66.380349	13.922343	17.610006	-13.344874	
5.6900	-1.248022	2.307737	12.979321	-0.116861	1.026832	0.013650	9.442524	-11.331326	18.166971	-5.415011	3.247191	-3.540883	-29.119503	-72.607099	106.943599	-81.321179	-156.797448	24.547639	-8.577295	11.760171	-4.230897	-15.458885	-16.777461	-33.358032	0.527692	63.854748	-22.234757	5.105698	65.259693	13.642543	18.931534	-12.252049	
5.7000	-1.425241	2.376072	13.001835	-0.116931	1.026623	0.013481	9.646892	-11.513936	18.660317	-5.688580	3.530132	-3.657596	-27.504708	-72.161519	108.180284	-81.223509	-157.437523	22.818260	-7.077817	12.082678	-4.521261	-15.995968	-16.314413	-32.999455	0.829656	63.979130	-21.181447	5.393456	63.988391	13.392359	20.175520	-11.254847	
5.7100	-1.618227	2.449010	13.012132	-0.116977	1.026423	0.013281	9.853130	-11.728049	19.149965	-5.984628	3.800051	-3.756623	-25.882030	-71.679899	109.398582	-80.993471	-158.031041	21.237283	-5.701039	12.427960	-4.832185	-16.572300	-15.826034	-32.628412	1.148942	64.074836	-20.119150	5.698237	62.578921	13.209675	21.288248	-10.378518	
5.7200	-1.823090	2.523285	13.018787	-0.116996	1.026222	0.013040	10.058706	-11.960445	19.640313	-6.298099	4.074410	-3.845975	-24.283943	-71.177176	110.591810	-80.623465	-158.590770	19.794235	-4.429730	12.797991	-5.146611	-17.190537	-15.328609	-32.245326	1.487590	64.120508	-19.037966	6.035531	61.032189	13.106298	22.281507	-9.630642	
5.7300	-2.038093	2.598698	13.014186	-0.116983	1.026035	0.012772	10.274383	-12.217536	20.145801	-6.632394	4.347542	-3.927884	-22.753106	-70.642156	111.694639	-80.129780	-159.116973	18.485922	-3.273141	13.187351	-5.480419	-17.840663	-14.807151	-31.848896	1.840064	64.141138	-17.964042	6.390456	59.371343	13.091625	23.161474	-8.990853	
5.7400	-2.258112	2.671241	13.012830	-0.116959	1.025824	0.012473	10.502383	-12.480179	20.661673	-6.963725	4.603063	-4.009629	-21.222832	-70.081989	112.785840	-79.534197	-159.655017	17.230681	-2.149226	13.610065	-5.814386	-18.549037	-14.288823	-31.459668	2.217900	64.116225	-16.876083	6.796921	57.605441	13.169441	23.998651	-8.436484	
5.7500	-2.482880	2.743632	13.001684	-0.116904	1.025642	0.012156	10.742016	-12.771381	21.190206	-7.315623	4.847916	-4.080284	-19.770204	-69.499103	113.766523	-78.837218	-160.153814	16.110027	-1.151751	14.051347	-6.173246	-19.288451	-13.746470	-31.067502	2.608402	64.081560	-15.808981	7.218096	55.746345	13.355695	24.719090	-7.985672	
5.7600	-2.710248	2.809442	12.987499	-0.116833	1.025432	0.011804	10.983075	-13.060921	21.720836	-7.666342	5.095593	-4.150091	-18.317060	-68.911264	114.759639	-78.062693	-160.645988	15.010684	-0.172428	14.529161	-6.517894	-20.090585	-13.223265	-30.687430	3.026835	63.998144	-14.720860	7.707627	53.802580	13.637143	25.393593	-7.615988	
5.7700	-2.939151	2.868919	12.960319	-0.116720	1.025264	0.011435	11.223302	-13.374395	22.250067	-8.038735	5.345961	-4.203787	-16.916552	-68.320964	115.683777	-77.213473	-161.069378	13.999557	0.702898	15.021133	-6.880408	-20.915938	-12.686366	-30.311297	3.453426	63.908809	-13.656285	8.224299	51.788184	14.001602	25.954813	-7.316002	
5.7800	-3.166889	2.919464	12.923024	-0.116562	1.025111	0.011043	11.452528	-13.691600	22.769296	-8.420810	5.614893	-4.247351	-15.540144	-67.738622	116.597586	-76.300467	-161.428280	13.042269	1.512370	15.531644	-7.235868	-21.771869	-12.160617	-29.942689	3.892844	63.793182	-12.590780	8.789974	49.705536	14.436937	26.420866	-7.075978	
